<svg aria-hidden="true" style="position: absolute; width: 0; height: 0; overflow: hidden;" version="1.1" xmlns="http://www.w3.org/2000/svg" xmlns:xlink="http://www.w3.org/1999/xlink">
<defs>
<symbol id="icon-arrow" viewBox="0 0 32 32">
<path d="M0.944 17.257c-0.694-0.694-0.694-1.82 0-2.514l11.314-11.314c0.694-0.694 1.82-0.694 2.514 0s0.694 1.82 0 2.514l-10.057 10.057 10.057 10.057c0.694 0.694 0.694 1.82 0 2.514s-1.82 0.694-2.514 0l-11.314-11.314zM32 17.778h-29.799v-3.556h29.799v3.556z"></path>
</symbol>
<symbol id="icon-cosmetics" viewBox="0 0 32 32">
<path d="M9.755 11.589h-9.892c-0.304 0-0.55 0.236-0.55 0.527v3.164c0 0.292 0.246 0.527 0.55 0.527h0.55v12.127c0 0.292 0.246 0.527 0.55 0.527h7.694c0.304 0 0.55-0.236 0.55-0.527v-12.127h0.55c0.304 0 0.55-0.236 0.55-0.527v-3.164c0-0.292-0.246-0.527-0.55-0.527zM3.71 21.607v-1.055h3.297v-1.055h-3.297v-1.055h4.396v6.854h-4.396v-2.636h1.099v-1.055h-1.099zM8.106 17.389h-4.946c-0.304 0-0.55 0.236-0.55 0.527v7.909c0 0.292 0.246 0.527 0.55 0.527h4.946v1.055h-6.595v-11.6h6.595v1.582zM9.205 14.753h-8.793v-2.109h8.793v2.109z"></path>
<path d="M17.036 11.688v-3.855c0-0.3-0.246-0.543-0.55-0.543h-0.55v-2.714h1.099v-1.086h-6.045v1.086h3.847v2.714h-0.55c-0.304 0-0.55 0.243-0.55 0.543v3.855c-1.252 0.252-2.198 1.348-2.198 2.659v13.571c0 0.3 0.246 0.543 0.55 0.543h6.595c0.304 0 0.55-0.243 0.55-0.543v-13.571c0-1.31-0.946-2.407-2.198-2.659zM14.838 8.376h1.099v3.257h-1.099v-3.257zM14.289 12.719h2.198c0.909 0 1.649 0.731 1.649 1.629v0.543h-5.496v-0.543c0-0.898 0.74-1.629 1.649-1.629zM18.135 25.204h-5.496v-1.086h2.198v-1.086h-2.198v-7.057h5.496v9.228zM12.64 27.376v-1.086h5.496v1.086h-5.496z"></path>
<path d="M31.084 10.914h-9.274c-0.285 0-0.515 0.238-0.515 0.532v16.484c0 0.294 0.23 0.532 0.515 0.532h9.274c0.285 0 0.515-0.238 0.515-0.532v-16.484c0-0.294-0.23-0.532-0.515-0.532zM30.569 27.398h-8.243v-15.42h8.243v15.42z"></path>
<path d="M7.557 21.712h-1.374v0.675h1.374v-0.675z"></path>
<path d="M17.174 23.062h-1.374v1.35h1.374v-1.35z"></path>
<path d="M15.456 21.712c1.326 0 2.404-1.059 2.404-2.362s-1.078-2.362-2.404-2.362c-1.326 0-2.404 1.059-2.404 2.362s1.078 2.362 2.404 2.362zM15.456 18.169c0.663 0 1.202 0.53 1.202 1.181s-0.539 1.181-1.202 1.181c-0.663 0-1.202-0.53-1.202-1.181s0.539-1.181 1.202-1.181z"></path>
<path d="M25.159 16.313h2.576c0.994 0 1.803-0.757 1.803-1.687s-0.809-1.687-1.803-1.687h-2.576c-0.994 0-1.803 0.757-1.803 1.687s0.809 1.687 1.803 1.687zM28.508 14.626c0 0.399-0.347 0.723-0.773 0.723h-0.773v-1.446h0.773c0.426 0 0.773 0.324 0.773 0.723zM25.159 13.903h0.773v1.446h-0.773c-0.426 0-0.773-0.324-0.773-0.723s0.347-0.723 0.773-0.723z"></path>
<path d="M25.159 21.712h2.576c0.994 0 1.803-0.908 1.803-2.025s-0.809-2.025-1.803-2.025h-2.576c-0.994 0-1.803 0.908-1.803 2.025s0.809 2.025 1.803 2.025zM28.508 19.688c0 0.478-0.347 0.868-0.773 0.868h-0.773v-1.735h0.773c0.426 0 0.773 0.389 0.773 0.868zM25.159 18.82h0.773v1.735h-0.773c-0.426 0-0.773-0.389-0.773-0.868s0.347-0.868 0.773-0.868z"></path>
<path d="M25.159 26.437h2.576c0.994 0 1.803-0.908 1.803-2.025s-0.809-2.025-1.803-2.025h-2.576c-0.994 0-1.803 0.908-1.803 2.025s0.809 2.025 1.803 2.025zM28.508 24.412c0 0.478-0.347 0.868-0.773 0.868h-0.773v-1.735h0.773c0.426 0 0.773 0.389 0.773 0.868zM25.159 23.544h0.773v1.735h-0.773c-0.426 0-0.773-0.389-0.773-0.868s0.347-0.868 0.773-0.868z"></path>
</symbol>
<symbol id="icon-crown" viewBox="0 0 32 32">
<path d="M30.932 9.083c-0.276-0.25-0.609-0.41-0.963-0.463s-0.715 0.004-1.041 0.163l-6.886 3.36c-0.030 0.018-0.064 0.030-0.098 0.033s-0.069 0-0.102-0.011c-0.033-0.011-0.064-0.030-0.090-0.054s-0.048-0.054-0.064-0.088l-4.023-7.95c-0.163-0.329-0.404-0.603-0.696-0.794s-0.627-0.292-0.967-0.292c-0.34 0-0.674 0.101-0.967 0.292s-0.533 0.465-0.696 0.794l-4.023 7.95c-0.016 0.034-0.038 0.064-0.064 0.088s-0.057 0.043-0.090 0.054c-0.033 0.011-0.068 0.015-0.102 0.011s-0.068-0.015-0.098-0.033l-6.886-3.36c-0.325-0.162-0.686-0.221-1.040-0.169s-0.688 0.212-0.964 0.462c-0.276 0.25-0.482 0.58-0.595 0.953s-0.13 0.773-0.047 1.155l3.477 16.245c0.059 0.275 0.168 0.533 0.32 0.76s0.345 0.417 0.566 0.56c0.291 0.196 0.627 0.3 0.968 0.3 0.175-0.002 0.349-0.027 0.518-0.075 6.357-1.935 13.072-1.94 19.432-0.015 0.248 0.079 0.508 0.101 0.764 0.066s0.503-0.127 0.726-0.27 0.417-0.334 0.571-0.562c0.154-0.228 0.264-0.488 0.324-0.764l3.464-16.245c0.087-0.379 0.074-0.778-0.038-1.15s-0.316-0.701-0.59-0.95zM29.977 10.763l-3.477 16.245c-0.019 0.079-0.062 0.148-0.123 0.195-0.068 0.036-0.144 0.047-0.218 0.030-6.648-2.020-13.67-2.020-20.318 0-0.036 0.011-0.073 0.014-0.11 0.009s-0.072-0.019-0.104-0.040c-0.032-0.021-0.060-0.049-0.081-0.082s-0.037-0.071-0.045-0.111l-3.477-16.245c-0.008-0.045-0.007-0.091 0.003-0.135s0.029-0.086 0.054-0.121c0.026-0.036 0.059-0.065 0.096-0.085s0.078-0.032 0.119-0.033l0.109 0.030 6.9 3.375c0.435 0.216 0.928 0.243 1.381 0.076s0.831-0.515 1.060-0.976l4.023-7.95c0.021-0.047 0.055-0.087 0.095-0.115s0.088-0.043 0.136-0.043c0.048 0 0.095 0.015 0.136 0.043s0.074 0.068 0.096 0.115l4.023 7.95c0.229 0.46 0.608 0.809 1.060 0.976s0.946 0.14 1.381-0.076l6.9-3.375c0.047-0.023 0.098-0.031 0.149-0.023s0.098 0.031 0.137 0.068c0.040 0.035 0.070 0.082 0.087 0.135s0.020 0.11 0.009 0.165zM21.182 22.163c-0.023 0.222-0.119 0.426-0.27 0.575s-0.346 0.233-0.548 0.235h-0.082c-2.847-0.315-5.716-0.315-8.564 0-0.215 0.025-0.43-0.044-0.599-0.193s-0.277-0.365-0.301-0.602c-0.019-0.238 0.047-0.475 0.185-0.66s0.336-0.303 0.552-0.33c2.955-0.345 5.936-0.345 8.891 0 0.213 0.027 0.409 0.143 0.547 0.325s0.205 0.415 0.19 0.65z"></path>
</symbol>
<symbol id="icon-facebook" viewBox="0 0 32 32">
<path d="M24.406 0.668c-1.487-0.158-2.981-0.234-4.476-0.23-4.956 0-8.036 3.157-8.036 8.238v3.45h-4.163c-0.195 0-0.383 0.078-0.521 0.216s-0.216 0.326-0.216 0.521v5.674c0 0.195 0.078 0.383 0.216 0.521s0.326 0.216 0.521 0.216h4.163v11.377c0 0.195 0.078 0.383 0.216 0.521s0.326 0.216 0.521 0.216h5.862c0.195 0 0.383-0.078 0.521-0.216s0.216-0.326 0.216-0.521v-11.377h4.15c0.179 0 0.352-0.065 0.486-0.183s0.221-0.281 0.245-0.458l0.732-5.674c0.014-0.104 0.005-0.21-0.026-0.31s-0.082-0.193-0.151-0.272c-0.069-0.079-0.154-0.142-0.25-0.185s-0.199-0.066-0.304-0.066h-4.882v-2.887c0-1.429 0.287-2.026 2.075-2.026h3.005c0.195 0 0.383-0.078 0.521-0.216s0.216-0.326 0.216-0.521v-5.077c0-0.179-0.065-0.352-0.183-0.486s-0.281-0.221-0.458-0.245zM23.574 5.737l-2.269 0.001c-3.179 0-3.547 1.998-3.547 3.5v3.625c0 0.195 0.077 0.382 0.215 0.521s0.325 0.216 0.52 0.216h4.784l-0.544 4.2h-4.238c-0.195 0-0.383 0.078-0.521 0.216s-0.216 0.326-0.216 0.521v11.374h-4.389v-11.374c0-0.195-0.078-0.383-0.216-0.521s-0.326-0.216-0.521-0.216h-4.162v-4.2h4.162c0.195 0 0.383-0.078 0.521-0.216s0.216-0.326 0.216-0.521v-4.188c0-4.235 2.454-6.764 6.562-6.764 1.487 0 2.829 0.081 3.643 0.152v3.674z"></path>
</symbol>
<symbol id="icon-instagram" viewBox="0 0 32 32">
<path d="M16 8.897c-1.405 0-2.778 0.417-3.946 1.197s-2.079 1.89-2.616 3.188-0.678 2.726-0.404 4.104c0.274 1.378 0.951 2.643 1.944 3.637s2.259 1.67 3.637 1.944c1.378 0.274 2.806 0.133 4.104-0.404s2.407-1.448 3.188-2.616c0.781-1.168 1.197-2.541 1.197-3.946 0-1.884-0.748-3.69-2.080-5.022s-3.139-2.080-5.023-2.080zM16 21.25c-1.038 0-2.053-0.308-2.917-0.885s-1.536-1.397-1.934-2.356c-0.397-0.959-0.501-2.015-0.299-3.033s0.703-1.954 1.437-2.688 1.67-1.234 2.688-1.437c1.018-0.203 2.074-0.099 3.033 0.299s1.779 1.070 2.356 1.934c0.577 0.863 0.885 1.878 0.885 2.917-0.004 1.391-0.558 2.724-1.542 3.708s-2.317 1.538-3.708 1.542zM22.794 0.868h-13.588c-2.211 0-4.332 0.878-5.896 2.442s-2.442 3.685-2.442 5.896v13.588c0 2.211 0.878 4.332 2.442 5.896s3.685 2.442 5.896 2.442h13.588c2.211 0 4.332-0.878 5.896-2.442s2.442-3.685 2.442-5.896v-13.588c0-2.211-0.878-4.332-2.442-5.896s-3.685-2.442-5.896-2.442zM29.279 22.794c0 1.72-0.683 3.369-1.899 4.586s-2.866 1.899-4.586 1.899h-13.588c-1.72 0-3.37-0.683-4.586-1.899s-1.899-2.866-1.899-4.586v-13.588c0-1.72 0.683-3.37 1.899-4.586s2.866-1.899 4.586-1.899h13.588c1.72 0 3.369 0.683 4.586 1.899s1.899 2.866 1.899 4.586v13.588zM25.574 7.971c0 0.305-0.091 0.604-0.26 0.858s-0.411 0.452-0.693 0.569c-0.282 0.117-0.593 0.148-0.892 0.088s-0.575-0.207-0.791-0.423c-0.216-0.216-0.363-0.491-0.423-0.791s-0.029-0.61 0.088-0.892 0.315-0.523 0.569-0.693c0.254-0.17 0.552-0.26 0.858-0.26 0.41 0 0.802 0.163 1.092 0.452s0.452 0.682 0.452 1.092z"></path>
</symbol>
<symbol id="icon-phone" viewBox="0 0 32 32">
<path d="M28.237 23.305l-0.182-0.227c-1.441-1.821-2.645-2.769-3.678-2.894-0.893-0.122-1.757 0.496-2.675 1.131l-0.981 0.613c-0.118 0.059-0.234 0.106-0.343 0.139-0.574 0.162-2.023 0.258-2.843-0.493-0.955-0.874-2.436-2.472-3.588-3.87-1.1-1.446-2.31-3.249-2.941-4.385-0.533-0.962-0.087-2.307 0.211-2.806 0.059-0.098 0.136-0.195 0.221-0.29l0.865-0.799c0.013-0.013 0.018-0.028 0.029-0.039 0.008-0.008 0.022-0.006 0.032-0.013 0.781-0.659 1.589-1.338 1.7-2.211 0.13-1.025-0.507-2.411-1.95-4.231l-0.176-0.227c-0.893-1.145-2.244-2.877-4.185-2.591-0.763 0.113-1.445 0.374-2.148 0.815-0.007 0.004-0.011 0.013-0.017 0.017s-0.013 0.004-0.018 0.008l-0.979 0.725c-0.010 0.006-0.015 0.018-0.025 0.027-0.007 0.007-0.018 0.008-0.027 0.015-0.113 0.095-0.227 0.193-0.339 0.294-0.993 0.885-3.142 3.454-1.676 8.205 0.946 3.069 2.898 6.65 5.657 10.377l-0.027 0.022 1.522 1.896 0.013-0.010c2.992 3.539 6.037 6.275 8.827 7.931 1.862 1.106 3.489 1.471 4.827 1.471 1.761 0 3.023-0.633 3.655-1.044l0.398-0.266c0.045-0.031 0.077-0.074 0.109-0.113l0.867-0.652c0.010-0.008 0.015-0.020 0.025-0.028 0.004-0.004 0.011-0.003 0.017-0.007 0.616-0.563 1.043-1.152 1.34-1.851 0.769-1.791-0.608-3.506-1.518-4.641zM28.726 27.507c-0.231 0.543-0.568 1.005-1.056 1.453l-1.289 0.97c-1.168 0.759-3.664 1.697-7.29-0.456-2.79-1.656-5.862-4.456-8.884-8.098l-0.818-1.033c-2.846-3.774-4.848-7.389-5.793-10.452-1.228-3.983 0.319-6.119 1.355-7.042 0.105-0.095 0.21-0.183 0.314-0.272l0.004-0.004 0.939-0.696c0.571-0.361 1.1-0.563 1.709-0.655 1.301-0.196 2.359 1.176 3.136 2.173l0.182 0.231c1.613 2.034 1.768 3.002 1.718 3.396-0.056 0.438-0.722 1-1.31 1.494l-0.083 0.070c-0.003 0.003-0.004 0.007-0.007 0.010-0.004 0.003-0.008 0.004-0.013 0.007l-0.895 0.827c-0.006 0.006-0.008 0.013-0.014 0.020s-0.017 0.010-0.022 0.017c-0.139 0.155-0.258 0.311-0.354 0.472-0.503 0.841-0.977 2.58-0.228 3.926 0.654 1.176 1.898 3.034 3.042 4.535 1.196 1.45 2.72 3.097 3.709 4 0.741 0.676 1.771 0.903 2.663 0.903 0.477 0 0.916-0.066 1.247-0.16 0.175-0.050 0.356-0.123 0.542-0.214 0.011-0.006 0.017-0.015 0.028-0.022 0.006-0.003 0.014-0.001 0.020-0.006l1.039-0.65c0.034-0.022 0.056-0.052 0.084-0.080l0.013 0.014c0.64-0.444 1.369-0.965 1.826-0.889 0.405 0.049 1.323 0.438 2.939 2.478l0.186 0.234c0.787 0.981 1.865 2.325 1.362 3.5z"></path>
</symbol>
<symbol id="icon-science" viewBox="0 0 29 32">
<path d="M14.612 0.072c-1.145 0-2.215 0.522-3.127 1.376s-1.692 2.044-2.343 3.485c-0.136 0.302-0.267 0.616-0.391 0.939-0.336-0.053-0.673-0.097-1.011-0.131-0.393-0.039-0.777-0.064-1.15-0.072-1.12-0.027-2.143 0.087-3.040 0.359-1.196 0.363-2.182 1.028-2.755 2.020s-0.656 2.179-0.372 3.396c0.284 1.217 0.924 2.488 1.847 3.772 0.194 0.269 0.401 0.539 0.619 0.81-0.214 0.264-0.42 0.533-0.618 0.809-0.923 1.284-1.563 2.555-1.847 3.772s-0.201 2.404 0.372 3.396c0.573 0.992 1.559 1.658 2.755 2.020s2.616 0.444 4.19 0.287c0.33-0.033 0.667-0.077 1.010-0.131 0.122 0.317 0.252 0.631 0.392 0.941 0.651 1.441 1.431 2.631 2.343 3.485s1.982 1.376 3.127 1.376c1.145 0 2.215-0.522 3.127-1.376s1.692-2.044 2.343-3.485c0.14-0.31 0.27-0.624 0.392-0.941 0.342 0.054 0.679 0.098 1.009 0.131 1.573 0.157 2.994 0.076 4.19-0.287s2.182-1.028 2.755-2.020c0.573-0.992 0.656-2.179 0.372-3.396s-0.924-2.488-1.847-3.772c-0.198-0.275-0.404-0.545-0.618-0.809 0.214-0.264 0.42-0.534 0.619-0.809 0.923-1.284 1.563-2.555 1.847-3.772s0.201-2.404-0.372-3.396c-0.573-0.992-1.559-1.658-2.755-2.020-0.897-0.272-1.92-0.385-3.039-0.359-0.373 0.009-0.757 0.033-1.15 0.072-0.33 0.033-0.667 0.077-1.010 0.131-0.122-0.317-0.252-0.63-0.391-0.939-0.651-1.441-1.431-2.631-2.343-3.485s-1.982-1.376-3.127-1.376l0 0zM14.612 1.346c0.764 0 1.513 0.336 2.256 1.032s1.452 1.749 2.053 3.080c0.098 0.217 0.191 0.436 0.279 0.657-1.46 0.325-3.007 0.823-4.588 1.488-1.58-0.665-3.127-1.163-4.587-1.488 0.090-0.226 0.183-0.446 0.279-0.658 0.601-1.331 1.31-2.384 2.053-3.080s1.492-1.031 2.256-1.031l-0 0zM6.186 6.941c0.123-0.001 0.248-0 0.375 0.002 0.338 0.008 0.69 0.029 1.053 0.066 0.232 0.023 0.47 0.053 0.711 0.088-0.449 1.427-0.791 3.015-1.005 4.717-1.367 1.036-2.572 2.127-3.583 3.229-0.148-0.187-0.292-0.378-0.431-0.571-0.852-1.185-1.409-2.326-1.641-3.318s-0.147-1.808 0.235-2.469c0.382-0.662 1.047-1.143 2.021-1.438 0.639-0.194 1.405-0.298 2.266-0.306l0 0zM23.038 6.941c0.861 0.008 1.626 0.112 2.266 0.306 0.974 0.295 1.639 0.776 2.021 1.438s0.466 1.478 0.235 2.469c-0.231 0.991-0.789 2.132-1.641 3.318-0.14 0.194-0.283 0.384-0.431 0.571-1.011-1.102-2.216-2.192-3.582-3.229-0.214-1.702-0.556-3.29-1.005-4.718 0.241-0.035 0.478-0.065 0.71-0.088 0.35-0.035 0.701-0.057 1.053-0.066 0.125-0.003 0.25-0.004 0.375-0.003v0zM19.634 7.326c0.339 1.053 0.619 2.214 0.829 3.457-0.676-0.457-1.369-0.89-2.076-1.298s-1.427-0.791-2.161-1.148c1.181-0.44 2.327-0.778 3.408-1.010v-0zM9.59 7.326c1.081 0.233 2.226 0.57 3.407 1.010-0.734 0.357-1.454 0.74-2.161 1.148s-1.399 0.84-2.075 1.297c0.209-1.243 0.49-2.404 0.829-3.456zM14.612 8.994c1.037 0.457 2.089 0.989 3.138 1.595s2.037 1.252 2.951 1.921c0.122 1.127 0.188 2.304 0.188 3.516s-0.066 2.388-0.188 3.514c-0.915 0.669-1.902 1.315-2.951 1.921s-2.102 1.138-3.139 1.595c-1.037-0.457-2.090-0.989-3.139-1.595s-2.036-1.251-2.95-1.92c-0.122-1.127-0.188-2.304-0.188-3.515s0.066-2.39 0.188-3.517c0.915-0.669 1.901-1.315 2.95-1.921s2.102-1.137 3.138-1.594v-0zM14.698 10.911l-3.648 2.251 3.648 2.251 3.648-2.251-3.648-2.251zM7.146 13.579c-0.057 0.814-0.086 1.63-0.086 2.447 0 0.832 0.029 1.648 0.086 2.445-0.972-0.802-1.837-1.626-2.579-2.446 0.742-0.82 1.607-1.643 2.579-2.446zM22.078 13.58c0.971 0.802 1.836 1.626 2.578 2.445-0.742 0.82-1.607 1.643-2.578 2.445 0.057-0.814 0.086-1.629 0.086-2.445 0-0.832-0.029-1.649-0.086-2.446h0zM10.228 14.152v4.445l3.831 2.364v-4.445l-3.831-2.365zM19.164 14.154l-3.83 2.364v4.443l3.83-2.364v-4.443h-0zM3.736 17.007c1.011 1.103 2.216 2.193 3.583 3.229 0.214 1.701 0.556 3.29 1.005 4.716-0.241 0.035-0.478 0.064-0.71 0.088-1.453 0.145-2.72 0.057-3.693-0.238s-1.639-0.776-2.021-1.438c-0.382-0.662-0.466-1.478-0.235-2.469s0.789-2.132 1.641-3.318c0.139-0.193 0.283-0.384 0.43-0.57zM25.488 17.007c0.15 0.191 0.295 0.381 0.43 0.57 0.852 1.185 1.409 2.326 1.641 3.318s0.147 1.808-0.235 2.469c-0.382 0.662-1.047 1.143-2.021 1.438s-2.241 0.383-3.693 0.238c-0.237-0.024-0.473-0.053-0.709-0.088 0.449-1.427 0.791-3.016 1.005-4.718 1.366-1.036 2.571-2.126 3.582-3.228v0zM20.463 21.267c-0.209 1.243-0.49 2.404-0.829 3.457-1.081-0.233-2.227-0.571-3.408-1.011 0.734-0.357 1.455-0.741 2.161-1.149s1.399-0.841 2.075-1.297h-0zM8.761 21.268c0.676 0.456 1.368 0.889 2.074 1.297s1.428 0.791 2.161 1.149c-1.181 0.44-2.326 0.778-3.407 1.010-0.339-1.052-0.619-2.213-0.829-3.456zM14.65 21.326l0.046 0.029 0.046-0.029h-0.092zM14.612 24.447c1.581 0.665 3.128 1.163 4.588 1.488-0.088 0.222-0.181 0.442-0.279 0.659-0.601 1.33-1.31 2.384-2.053 3.080s-1.492 1.032-2.256 1.032c-0.764 0-1.513-0.336-2.256-1.032s-1.452-1.749-2.053-3.080c-0.098-0.218-0.191-0.438-0.279-0.659 1.46-0.325 3.007-0.823 4.588-1.488h-0z"></path>
</symbol>
<symbol id="icon-nav-ellipse" viewBox="0 0 32 32">
<path d="M32 16c0 8.837-7.163 16-16 16s-16-7.163-16-16c0-8.837 7.163-16 16-16s16 7.163 16 16z"></path>
</symbol>
<symbol id="icon-close" viewBox="0 0 20 20">
<path d="M10 8.586l-7.071-7.071-1.414 1.414 7.071 7.071-7.071 7.071 1.414 1.414 7.071-7.071 7.071 7.071 1.414-1.414-7.071-7.071 7.071-7.071-1.414-1.414-7.071 7.071z"></path>
</symbol>
<symbol id="icon-star1" viewBox="0 0 32 32">
<path d="M6.693 0l10.657 10.184 14.321-3.491-10.184 10.657 3.491 14.321-10.657-10.184-14.321 3.491 10.184-10.657-3.491-14.321z"></path>
</symbol>
<symbol id="icon-star2" viewBox="0 0 32 32">
<path d="M24.979 0l-3.491 14.321 10.184 10.657-14.321-3.491-10.657 10.184 3.491-14.321-10.184-10.657 14.321 3.491 10.657-10.184z"></path>
</symbol>
<symbol id="icon-star3" viewBox="0 0 30 32">
<path d="M8.965 1.136l8.153 9.994 12.812-1.483-9.994 8.153 1.483 12.813-8.153-9.994-12.813 1.483 9.994-8.153-1.483-12.813z"></path>
</symbol>
<symbol id="icon-menu" viewBox="0 0 46 32">
<path d="M45.714 29.726c0 1.257-1.019 2.274-2.274 2.274h-18.309c-1.256 0-2.274-1.018-2.274-2.274s1.018-2.274 2.274-2.274h18.309c1.257 0 2.274 1.017 2.274 2.274zM45.714 16c0 1.257-1.019 2.274-2.274 2.274h-41.166c-1.256 0-2.274-1.018-2.274-2.274s1.018-2.274 2.274-2.274h41.166c1.257 0 2.274 1.019 2.274 2.274zM43.44 4.549c1.256 0 2.274-1.018 2.274-2.274s-1.018-2.274-2.274-2.274v0h-27.451c-1.256 0-2.274 1.018-2.274 2.274s1.018 2.274 2.274 2.274v0h27.451z"></path>
</symbol>
</defs>
</svg>
