<svg width="34" height="34" viewBox="0 0 34 34" fill="none" xmlns="http://www.w3.org/2000/svg">
<path d="M17 9.45312C15.5074 9.45312 14.0483 9.89574 12.8072 10.725C11.5661 11.5543 10.5988 12.7329 10.0276 14.1119C9.45639 15.4909 9.30694 17.0084 9.59814 18.4723C9.88933 19.9363 10.6081 21.281 11.6636 22.3364C12.719 23.3919 14.0637 24.1107 15.5277 24.4019C16.9916 24.6931 18.5091 24.5436 19.8881 23.9724C21.2671 23.4012 22.4457 22.4339 23.275 21.1928C24.1043 19.9517 24.5469 18.4926 24.5469 17C24.5469 14.9984 23.7518 13.0789 22.3364 11.6636C20.9211 10.2482 19.0016 9.45312 17 9.45312ZM17 22.5781C15.8968 22.5781 14.8183 22.251 13.901 21.638C12.9836 21.0251 12.2687 20.1539 11.8465 19.1347C11.4243 18.1154 11.3138 16.9938 11.5291 15.9118C11.7443 14.8297 12.2756 13.8358 13.0557 13.0557C13.8358 12.2756 14.8297 11.7443 15.9118 11.5291C16.9938 11.3138 18.1154 11.4243 19.1347 11.8465C20.1539 12.2687 21.0251 12.9836 21.638 13.901C22.251 14.8183 22.5781 15.8968 22.5781 17C22.5738 18.4781 21.9847 19.8944 20.9395 20.9395C19.8944 21.9847 18.4781 22.5738 17 22.5781ZM24.2188 0.921875H9.78125C7.4316 0.921875 5.17818 1.85527 3.51673 3.51673C1.85527 5.17818 0.921875 7.4316 0.921875 9.78125V24.2188C0.921875 26.5684 1.85527 28.8218 3.51673 30.4833C5.17818 32.1447 7.4316 33.0781 9.78125 33.0781H24.2188C26.5684 33.0781 28.8218 32.1447 30.4833 30.4833C32.1447 28.8218 33.0781 26.5684 33.0781 24.2188V9.78125C33.0781 7.4316 32.1447 5.17818 30.4833 3.51673C28.8218 1.85527 26.5684 0.921875 24.2188 0.921875ZM31.1094 24.2188C31.1094 26.0463 30.3834 27.7989 29.0912 29.0912C27.7989 30.3834 26.0463 31.1094 24.2188 31.1094H9.78125C7.95374 31.1094 6.20108 30.3834 4.90884 29.0912C3.6166 27.7989 2.89063 26.0463 2.89062 24.2188V9.78125C2.89062 7.95374 3.6166 6.20108 4.90884 4.90884C6.20108 3.6166 7.95374 2.89063 9.78125 2.89062H24.2188C26.0463 2.89063 27.7989 3.6166 29.0912 4.90884C30.3834 6.20108 31.1094 7.95374 31.1094 9.78125V24.2188ZM27.1719 8.46875C27.1719 8.79323 27.0757 9.11043 26.8954 9.38023C26.7151 9.65003 26.4589 9.86031 26.1591 9.98449C25.8593 10.1087 25.5294 10.1412 25.2112 10.0779C24.8929 10.0145 24.6006 9.85829 24.3712 9.62885C24.1417 9.3994 23.9855 9.10707 23.9222 8.78882C23.8588 8.47057 23.8913 8.14069 24.0155 7.84091C24.1397 7.54112 24.35 7.28489 24.6198 7.10462C24.8896 6.92435 25.2068 6.82812 25.5312 6.82812C25.9664 6.82812 26.3837 7.00098 26.6913 7.30865C26.999 7.61633 27.1719 8.03363 27.1719 8.46875Z" fill="white"/>
</svg>
