<svg width="36" height="40" viewBox="0 0 36 40" fill="none" xmlns="http://www.w3.org/2000/svg">
<path d="M33.2968 29.1315L33.0693 28.848C31.2685 26.5713 29.7635 25.3865 28.472 25.2308C27.3555 25.0785 26.2758 25.8503 25.1278 26.6448L23.901 27.4113C23.754 27.4848 23.6088 27.5443 23.4723 27.5845C22.7548 27.7875 20.9435 27.9065 19.918 26.9685C18.7245 25.8765 16.873 23.878 15.4328 22.1315C14.0573 20.3238 12.5453 18.0698 11.756 16.6505C11.0893 15.4483 11.6475 13.7665 12.0203 13.1435C12.0938 13.021 12.19 12.9003 12.2968 12.7813L13.3783 11.782C13.394 11.7663 13.401 11.747 13.415 11.733C13.4255 11.7225 13.443 11.726 13.4553 11.7173C14.4318 10.893 15.4415 10.0443 15.5798 8.95403C15.7425 7.67303 14.9463 5.94053 13.142 3.66553L12.9215 3.38203C11.805 1.95053 10.1163 -0.214216 7.69078 0.142784C6.73703 0.284534 5.88478 0.610034 5.00628 1.16128C4.99753 1.16653 4.99228 1.17703 4.98528 1.18228C4.97828 1.18753 4.96953 1.18753 4.96253 1.19278L3.73928 2.09928C3.72703 2.10628 3.72003 2.12203 3.70778 2.13253C3.69903 2.14128 3.68503 2.14303 3.67453 2.15178C3.53278 2.27078 3.39103 2.39328 3.25103 2.51928C2.01028 3.62528 -0.675969 6.83653 1.15628 12.776C2.33928 16.612 4.77878 21.0885 8.22803 25.747L8.19478 25.775L10.097 28.1445L10.1128 28.1323C13.8525 32.5563 17.6588 35.9758 21.1465 38.046C23.474 39.4285 25.5075 39.8853 27.1805 39.8853C29.382 39.8853 30.9588 39.0943 31.7498 38.5798L32.2468 38.2473C32.3028 38.2088 32.343 38.1545 32.3833 38.1055L33.4665 37.29C33.4788 37.2795 33.4858 37.2655 33.498 37.255C33.5033 37.2498 33.512 37.2515 33.519 37.2463C34.289 36.5428 34.8228 35.806 35.1938 34.9328C36.1545 32.6945 34.4343 30.5508 33.2968 29.1315ZM33.9075 34.3833C33.6188 35.0623 33.197 35.6398 32.588 36.1998L30.9763 37.4125C29.5168 38.361 26.3965 39.5335 21.864 36.842C18.3763 34.7718 14.5368 31.2718 10.7585 26.72L9.73653 25.4285C6.17878 20.7105 3.67628 16.192 2.49503 12.363C0.960282 7.38428 2.89403 4.71378 4.18903 3.56053C4.32028 3.44153 4.45153 3.33128 4.58103 3.22103L4.58628 3.21578L5.76053 2.34603C6.47453 1.89453 7.13603 1.64253 7.89728 1.52703C9.52303 1.28203 10.846 2.99703 11.8173 4.24303L12.0448 4.53178C14.0608 7.07453 14.255 8.28378 14.192 8.77728C14.122 9.32503 13.289 10.0268 12.554 10.6445L12.4508 10.732C12.4473 10.7355 12.4455 10.7408 12.442 10.7443C12.4368 10.7478 12.4315 10.7495 12.4263 10.753L11.308 11.7873C11.301 11.7943 11.2975 11.803 11.2905 11.8118C11.2835 11.8205 11.2695 11.824 11.2625 11.8328C11.0893 12.027 10.9405 12.2213 10.8198 12.4225C10.1915 13.4743 9.59828 15.6478 10.5345 17.3295C11.3518 18.7995 12.9075 21.1218 14.3373 22.9978C15.8318 24.8108 17.7375 26.8688 18.973 27.9975C19.8988 28.8428 21.1868 29.1263 22.3015 29.1263C22.8983 29.1263 23.446 29.044 23.8608 28.9268C24.0795 28.8638 24.3053 28.7728 24.538 28.659C24.552 28.652 24.559 28.6398 24.573 28.631C24.58 28.6275 24.5905 28.6293 24.5975 28.624L25.896 27.812C25.938 27.784 25.966 27.7473 26.001 27.7123L26.0168 27.7298C26.8165 27.175 27.7283 26.524 28.2988 26.6185C28.8045 26.6798 29.9525 27.1663 31.972 29.716L32.2048 30.0083C33.1883 31.235 34.5358 32.915 33.9075 34.3833Z" fill="white"/>
</svg>
