<svg width="23" height="38" viewBox="0 0 23 38" fill="none" xmlns="http://www.w3.org/2000/svg">
<path d="M21.4825 0.793002C19.7172 0.605733 17.943 0.514599 16.1678 0.520002C10.2825 0.520002 6.62502 4.2685 6.62502 10.3025V14.3993H1.68127C1.44921 14.3993 1.22665 14.4914 1.06256 14.6555C0.898461 14.8196 0.806274 15.0422 0.806274 15.2743V22.0118C0.806274 22.2438 0.898461 22.4664 1.06256 22.6305C1.22665 22.7946 1.44921 22.8868 1.68127 22.8868H6.62502V36.3968C6.62502 36.6288 6.71721 36.8514 6.8813 37.0155C7.0454 37.1796 7.26796 37.2718 7.50002 37.2718H14.4615C14.6936 37.2718 14.9161 37.1796 15.0802 37.0155C15.2443 36.8514 15.3365 36.6288 15.3365 36.3968V22.8868H20.2645C20.477 22.8869 20.6822 22.8097 20.8419 22.6696C21.0016 22.5295 21.1049 22.3361 21.1325 22.1255L22.0023 15.388C22.0185 15.2645 22.0081 15.139 21.9719 15.0198C21.9357 14.9007 21.8744 14.7906 21.7923 14.697C21.7101 14.6034 21.6089 14.5284 21.4954 14.4771C21.3819 14.4257 21.2588 14.3992 21.1343 14.3993H15.3365V10.971C15.3365 9.2735 15.6778 8.56475 17.8005 8.56475H21.3688C21.6008 8.56475 21.8234 8.47257 21.9875 8.30847C22.1516 8.14438 22.2438 7.92182 22.2438 7.68975V1.661C22.2439 1.44857 22.1667 1.24335 22.0266 1.08363C21.8865 0.92392 21.6932 0.820619 21.4825 0.793002ZM20.4938 6.813L17.7988 6.81475C14.024 6.81475 13.5865 9.18775 13.5865 10.971V15.276C13.5865 15.5078 13.6785 15.7301 13.8422 15.8941C14.0059 16.0581 14.228 16.1505 14.4598 16.151H20.1403L19.4945 21.1385H14.4615C14.2295 21.1385 14.0069 21.2307 13.8428 21.3948C13.6787 21.5589 13.5865 21.7814 13.5865 22.0135V35.52H8.37502V22.0135C8.37502 21.7814 8.28284 21.5589 8.11874 21.3948C7.95465 21.2307 7.73209 21.1385 7.50002 21.1385H2.55802V16.151H7.50002C7.73209 16.151 7.95465 16.0588 8.11874 15.8947C8.28284 15.7306 8.37502 15.5081 8.37502 15.276V10.3025C8.37502 5.273 11.2888 2.27 16.1678 2.27C17.9335 2.27 19.5278 2.36625 20.4938 2.45025V6.813Z" fill="white"/>
</svg>
